<?xml version="1.0" encoding="utf-8"?>
<!-- Generator: Adobe Illustrator 25.3.0, SVG Export Plug-In . SVG Version: 6.00 Build 0)  -->
<svg version="1.1"
	 id="svg5091" xmlns:inkscape="http://www.inkscape.org/namespaces/inkscape" xmlns:sodipodi="http://sodipodi.sourceforge.net/DTD/sodipodi-0.dtd" xmlns:svg="http://www.w3.org/2000/svg"
	 xmlns="http://www.w3.org/2000/svg" xmlns:xlink="http://www.w3.org/1999/xlink" x="0px" y="0px" viewBox="0 0 283.5 283.5"
	 style="enable-background:new 0 0 283.5 283.5;" xml:space="preserve">
<style type="text/css">
	.st0{fill:#FFFFFF;fill-opacity:0;stroke:#FFFFFF;stroke-width:8;}
	.st1{fill:#FFFFFF;fill-opacity:0;stroke:#FFFFFF;stroke-width:8;stroke-linejoin:round;}
</style>
<sodipodi:namedview  bordercolor="#eeeeee" borderopacity="1" id="namedview5093" inkscape:current-layer="layer1" inkscape:cx="180.76765" inkscape:cy="453.61169" inkscape:deskcolor="#505050" inkscape:document-units="mm" inkscape:pagecheckerboard="0" inkscape:pageopacity="0" inkscape:showpageshadow="0" inkscape:window-height="1009" inkscape:window-maximized="1" inkscape:window-width="1920" inkscape:window-x="-8" inkscape:window-y="-8" inkscape:zoom="0.73851712" pagecolor="#505050" showgrid="false">
	</sodipodi:namedview>
<defs>
	<inkscape:path-effect  effect="spiro" id="path-effect9745" is_visible="true" lpeversion="1"></inkscape:path-effect>
</defs>
<g id="layer1" inkscape:groupmode="layer" inkscape:label="Layer 1">
	<g id="g10537" transform="matrix(6.1381379,0,0,6.0729196,-266.37541,-705.11826)">
		
			<path id="path9743" inkscape:original-d="m 55.019153,124.91249 c 2.65693,-3.43586 -5.417088,5.72578 -8.127132,8.58716 -2.710044,2.86139 0.103228,1.14596 0.153342,1.71743 0.05011,0.57148 5.31686,-6.86872 7.97379,-10.30459 z" inkscape:path-effect="#path-effect9745" class="st0" d="
			M62.7,122.7c-3.5,0.2-6.9,1.8-9.3,4.4c-2.4,2.5-3.8,6-3.8,9.5c0,0.9,0.1,1.9,0.2,2.8c0.5,2.6,1.8,5.1,3.6,7.1s4.3,3.3,6.9,4
			c2.6,0.6,5.4,0.5,7.9-0.4s4.8-2.5,6.5-4.7c1.6-2.1,2.7-4.7,2.9-7.4s-0.3-5.4-1.6-7.8c-1.3-2.4-3.2-4.4-5.6-5.7
			C68.1,123.1,65.4,122.5,62.7,122.7L62.7,122.7z"/>
		<path id="path9801" class="st1" d="M73.5,146.8l9.9,9.4L73.5,146.8z"/>
	</g>
</g>
</svg>
