<?xml version="1.0" encoding="utf-8"?>
<!-- Generator: Adobe Illustrator 25.3.0, SVG Export Plug-In . SVG Version: 6.00 Build 0)  -->
<svg version="1.1" id="Layer_1" xmlns="http://www.w3.org/2000/svg" xmlns:xlink="http://www.w3.org/1999/xlink" x="0px" y="0px"
	 viewBox="0 0 283.5 283.5" style="enable-background:new 0 0 283.5 283.5;" xml:space="preserve">
<style type="text/css">
	.st0{fill:#FFFFFF;}
	.st1{fill:none;stroke:#FFFFFF;stroke-width:3;stroke-miterlimit:10;}
	.st2{fill:none;stroke:#FFFFFF;stroke-width:8;stroke-miterlimit:10;}
	.st3{opacity:0.65;fill:none;stroke:#FFFFFF;stroke-width:6;stroke-miterlimit:10;}
</style>
<g>
	<g>
		<path class="st0" d="M190.8,47.2c0.4,3.6,3.5,8.3,8.7,12c4.3,3.1,8.8,4.8,12.3,4.8c0.7,0,1.3-0.1,1.8-0.2c-0.4,1-1,2-1.6,2.9
			L104.4,214.3c0,0-0.1,0.1-0.2,0.1c-0.1,0-0.2,0-0.2-0.2c-0.4-1.1-1.8-4.5-4.9-4.5c-0.3,0-0.6,0-0.9,0.1c-0.2,0-0.4,0.1-0.5,0.1
			c-0.3,0-0.7,0.1-1,0.1c-5.9,0-9.6-7.8-9.6-7.8s-0.7-4-4.3-4.7c-0.9-0.2-1.3-1.1-0.8-1.8L188.7,49.6
			C189.3,48.7,190,47.9,190.8,47.2 M207,9.4l-28.4,22.1c-2.3,1.8-4.3,3.9-6.2,6.5L66.1,183.8c-4.1,5.5-5.3,12.7-3.2,19.3
			c1.4,4.2,4,7.7,7.5,10.3c4.1,7.1,11,14,20.5,16c3.6,3.2,8.3,5,13.3,5c5.4,0,10.5-2.1,14.3-5.9l1.1-1.1l0.9-1.3L228,78.6
			c1.9-2.5,3.4-5.2,4.4-8l12.4-34l-32.6,7c-0.3-0.2-0.6-0.4-1-0.6c-0.3-0.2-0.6-0.4-0.8-0.6L207,9.4L207,9.4z"/>
	</g>
	<path class="st1" d="M199.3,33.4c0.6-0.9,1.4-1.3,2.5-1.6l-3.4,4.6C198.4,35.3,198.7,34.3,199.3,33.4z"/>
	<path class="st1" d="M224.3,51.7c-0.6,0.9-1.4,1.3-2.5,1.6l3.4-4.6C225.1,49.8,224.9,50.9,224.3,51.7z"/>
	<g>
		<path class="st0" d="M211.8,23.3c1.6,0,3.2,0.5,4.5,1.5l11.1,8.2c3.2,2.4,4,7.1,1.6,10.4l-7.2,10c-0.2,0.1-0.4,0.1-0.6,0.2
			c-0.6,0.1-1.2,0.2-1.8,0.2c-3.5,0-8-1.7-12.3-4.8c-5-3.6-8.2-8.3-8.7-12c0-0.2,0-0.4,0-0.6l7.2-10
			C207.2,24.3,209.4,23.3,211.8,23.3 M211.8,3.3L211.8,3.3L211.8,3.3c-8.8,0-17.1,4.3-22.3,11.4l-7.2,10l-3.8,5.2v6.5v0.6v1.3
			l0.2,1.3c1.2,9.5,7.4,18.9,16.9,25.7c7.6,5.5,16.2,8.5,24,8.5c2.1,0,4.1-0.2,6-0.6l2.5-0.5L229,72c0.6-0.2,1.2-0.5,1.7-0.8
			l4.4-2.2l2.9-4l7.2-10l0-0.1l0-0.1c8.7-12.2,6-29.3-6-38.1l-11.1-8.2l-0.1,0l-0.1,0C223.2,5.1,217.6,3.3,211.8,3.3L211.8,3.3z"/>
	</g>
	<path class="st2" d="M221.7,53.3L212,66.6c0.7-1,1.1-1.8,1.6-2.9c-3.5,0.8-9.1-1-14.1-4.6c-5-3.6-8.2-8.3-8.7-12
		c-0.9,0.8-1.5,1.4-2.2,2.4l9.7-13.2c0,0.2,0,0.4,0,0.6c0.4,3.6,3.5,8.3,8.7,12s10.6,5.3,14.1,4.6C221.3,53.4,221.5,53.4,221.7,53.3
		z"/>
	<path class="st1" d="M219.6,56.3l-9.7,13.2c0.7-1,1.1-1.8,1.6-2.9c-3.5,0.8-9.1-1-14.1-4.6c-5-3.6-8.2-8.3-8.7-12
		c-0.9,0.8-1.5,1.4-2.2,2.4l9.7-13.2c0,0.2,0,0.4,0,0.6c0.4,3.6,3.5,8.3,8.7,12s10.6,5.3,14.1,4.6C219.2,56.4,219.4,56.4,219.6,56.3
		z"/>
	<path class="st2" d="M104.1,214.4c0,0.2,0,0.3-0.1,0.4l-0.8,1.1l-23.9,21c-2.6-0.2-5-1.1-7.2-2.8s-3.8-3.7-4.8-6L79.8,199l1-1.2
		c5.6-0.8,6.4,4.7,6.4,4.7s4,8.5,10.6,7.7c0.2,0,0.4,0,0.5-0.1C102.1,209.1,103.8,213.5,104.1,214.4z"/>
	<g>
		<path class="st0" d="M67.3,228.2c1,2.4,2.6,4.5,4.8,6c2.2,1.7,4.8,2.7,7.2,2.8l-26,23.3c0,0-0.1,0-0.1,0c-0.1,0-0.2-0.1-0.1-0.2
			L67.3,228.2 M67.3,198.5l-11,24.7l-14.2,31.9c-1.7,3.8-1.3,8.1,0.9,11.6c2.2,3.5,6.1,5.5,10.2,5.5c3,0,5.9-1.1,8.1-3.1l26-23.3
			l22.1-19.8l-29.6-1.1c-0.1,0-0.2-0.1-0.4-0.2l-0.3-0.2l-0.3-0.2c-0.2-0.1-0.4-0.5-0.6-1L67.3,198.5L67.3,198.5z"/>
	</g>
	<path class="st1" d="M97.8,210.1L202.7,66L97.8,210.1z"/>
	<line class="st1" x1="192.7" y1="57.8" x2="87.3" y2="202.3"/>
</g>
<polyline class="st3" points="22,179.5 43,202.3 81.9,184.5 147.8,210.1 173,197.7 203.1,214.4 230.4,196.9 266,197.7 "/>
<path class="st3" d="M13,228.2l35-10.9l33.9-1.6c0,0,50.6,22.7,65.9,25.6c15.2,2.9,11.7-11.6,25.2-12.4s13.6,18.1,30.1,16.7
	s16.8-10.8,27.4-17.5c10.6-6.7,22.6-5.7,22.6-5.7"/>
<path class="st3" d="M22,248.6c0,0,5,17.8,21,22.9s38.9-17.9,38.9-17.9S94,277.6,114,266s21.2,19.3,33.8,13.1s25.2-12.4,25.2-12.4
	s11.5-1.8,30.1-6.5c18.6-4.8,27.4,5.8,27.4,5.8l45.6,17.5"/>
</svg>
