<svg id="Layer_1" data-name="Layer 1" xmlns="http://www.w3.org/2000/svg" viewBox="0 0 1770.47 1434.38"><defs><style>.cls-1,.cls-2,.cls-3{fill:none;stroke:#fff;stroke-miterlimit:10;}.cls-1{stroke-width:15px;}.cls-2{stroke-width:8px;}.cls-3{stroke-width:5px;}</style></defs><path class="cls-1" d="M1213.61,293.83l-635.2,871.76s-8.56-33.4-34.9-28a26.55,26.55,0,0,1-2.86.46c-38.06,5.14-61.83-45-61.83-45s-5.18-31.78-37.8-27.55l635.2-871.76a85,85,0,0,1,13-14.13c2.18,21.42,21.23,49.09,51,70.74s61.89,31.31,82.95,26.82A85.07,85.07,0,0,1,1213.61,293.83Z" transform="translate(160.13 -30.81)"/><path class="cls-1" d="M1138.3,98.21c3.47-4.76,8.55-8.06,14.77-10l-19.73,27.08A27.58,27.58,0,0,1,1138.3,98.21Z" transform="translate(160.13 -30.81)"/><path class="cls-1" d="M1285.5,205.47a27.55,27.55,0,0,1-14.77,10l19.73-27.08C1290.56,194.86,1289,200.7,1285.5,205.47Z" transform="translate(160.13 -30.81)"/><path class="cls-1" d="M1313.53,156.7l-42.8,58.74a31.7,31.7,0,0,1-3.29.85c-21.06,4.49-53.24-5.17-83-26.82s-48.76-49.32-50.94-70.74a30.23,30.23,0,0,1-.2-3.4l42.8-58.74a44.47,44.47,0,0,1,62.12-9.75l65.52,47.73A44.48,44.48,0,0,1,1313.53,156.7Z" transform="translate(160.13 -30.81)"/><path class="cls-1" d="M1270.73,215.44l-57.12,78.39a85.07,85.07,0,0,0,9.48-16.68c-21.06,4.49-53.24-5.17-82.95-26.82s-48.77-49.32-51-70.74a85,85,0,0,0-13,14.13l57.12-78.39a30.23,30.23,0,0,0,.2,3.4c2.18,21.42,21.23,49.09,50.94,70.74s61.9,31.31,83,26.82A31.7,31.7,0,0,0,1270.73,215.44Z" transform="translate(160.13 -30.81)"/><path class="cls-1" d="M1258.19,232.64,1201.07,311a84.56,84.56,0,0,0,9.48-16.68c-21,4.49-53.23-5.16-83-26.82s-48.76-49.32-50.94-70.74a85.47,85.47,0,0,0-13,14.13l57.12-78.39a30.26,30.26,0,0,0,.21,3.4c2.18,21.42,21.23,49.09,50.94,70.74s61.89,31.31,83,26.82A31.06,31.06,0,0,0,1258.19,232.64Z" transform="translate(160.13 -30.81)"/><path class="cls-1" d="M578,1164.18a2.29,2.29,0,0,1-.66,2.37l-4.51,6.69L431.9,1296.72a85,85,0,0,1-70.82-51.6L435.23,1073l5.79-7.5c32.62-4.23,37.8,27.55,37.8,27.55s23.77,50.18,61.83,45a26.55,26.55,0,0,0,2.86-.46C566.58,1132.86,576,1157.9,578,1164.18Z" transform="translate(160.13 -30.81)"/><path class="cls-1" d="M431.9,1296.72,276,1436.24l85.05-191.12a85,85,0,0,0,70.82,51.6Z" transform="translate(160.13 -30.81)"/><path class="cls-1" d="M540.62,1138.05l617.89-848Z" transform="translate(160.13 -30.81)"/><line class="cls-1" x1="1259.36" y1="210.74" x2="638.95" y2="1062.21"/><line class="cls-2" x1="1007" y1="686.95" x2="1007" y2="686.94"/><line class="cls-2" x1="905.12" y1="826.77" x2="905.12" y2="826.76"/><polyline class="cls-1" points="838.03 709.57 436.16 7.5 557.62 7.5 934.44 577.25"/><polyline class="cls-1" points="1034.52 728.57 1482.19 1405.43 1236.35 1405.43 930.57 871.23"/><line class="cls-2" x1="961.97" y1="618.88" x2="961.97" y2="618.87"/><path class="cls-3" d="M-157.82,1359.36l26.31,64.34a1207.11,1207.11,0,0,0,240.59,30.64c315.65,8.17,411.89-114.88,680.4-88.85,149.39,14.48,187.62,59.16,277.36,54.36" transform="translate(160.13 -30.81)"/><path class="cls-3" d="M1266.5,1352.23c40.86-20.54,81.87-37.85,139.47-38.82,87.11-1.47,158.51,35.34,203,64.34" transform="translate(160.13 -30.81)"/><path class="cls-3" d="M1506.91,1100.31q3.21-21.42,6.41-42.85c-15.8-3.28-36.09-7.35-59.94-11.76-12.72-2.36-26.44-4.81-41-7.29,0,0-135.36-23-263.28-32.39-42.75-3.12-78.29-2.6-111.42.19" transform="translate(160.13 -30.81)"/><path class="cls-3" d="M657.61,1056.9q13.88-.81,28.48-1.86c65.47-4.72,117.21-11.48,161.32-18.54" transform="translate(160.13 -30.81)"/><path class="cls-3" d="M-13.32,1182.15A799.13,799.13,0,0,1,165,1091.41c109.8-39.33,179.52-36.36,281.25-33.08" transform="translate(160.13 -30.81)"/><path class="cls-3" d="M449,1281.7c43.18,15.81,88.86,29.48,147.77,29.42C667,1311.05,768,1290,890.94,1188.57c10.33-5.34,21.73-10.88,34.13-16.38" transform="translate(160.13 -30.81)"/><path class="cls-3" d="M1115.89,1124.52l4.83-.29c69.29-3.83,99.38,8.08,157,0,46.25-6.49,106.94-25.41,175.65-78.53a573.23,573.23,0,0,0,50.32-44" transform="translate(160.13 -30.81)"/><path class="cls-3" d="M363.82,1251q-2.35-.72-4.72-1.41c-31.48-9.26-65.39-15.6-105.44-15-60.3.85-149.23,22-257.36,125.62" transform="translate(160.13 -30.81)"/></svg>